<svg width="378" height="84" viewBox="0 0 378 84" fill="none" xmlns="http://www.w3.org/2000/svg">
<rect width="378" height="84" rx="14" fill="#111827"/>
<path d="M42.08 52.28L40.295 48.605C42.7917 46.9483 45.0433 46.12 47.05 46.12C48.73 46.12 49.57 47.065 49.57 48.955C49.57 49.4917 49.2433 51.1367 48.59 53.89C47.96 56.62 47.645 58.7083 47.645 60.155C47.645 61.6017 47.96 62.675 48.59 63.375C47.2833 64.3317 45.9183 64.81 44.495 64.81C43.0717 64.81 42.0567 64.3433 41.45 63.41C40.8667 62.4767 40.575 61.1117 40.575 59.315C39.315 59.6883 38.0083 59.875 36.655 59.875C33.4817 59.875 30.915 58.895 28.955 56.935C27.0183 54.975 26.05 52.0817 26.05 48.255C26.05 46.6217 26.4 44.965 27.1 43.285C27.8 41.5817 28.7917 40.0067 30.075 38.56C31.3583 37.1133 33.0267 35.935 35.08 35.025C37.1567 34.0917 39.2917 33.625 41.485 33.625C43.7017 33.625 45.4283 34.0333 46.665 34.85C47.925 35.6667 48.555 36.7983 48.555 38.245C48.555 39.6917 48.0767 40.8233 47.12 41.64C46.1867 42.4333 45.1133 42.83 43.9 42.83C42.6867 42.83 41.59 42.5733 40.61 42.06C39.6533 41.5233 38.8833 40.765 38.3 39.785C37.04 40.3917 35.955 41.5817 35.045 43.355C34.135 45.1283 33.68 46.9833 33.68 48.92C33.68 50.8567 34.0533 52.315 34.8 53.295C35.57 54.2517 36.5267 54.73 37.67 54.73C39.3267 54.73 40.7967 53.9133 42.08 52.28ZM58.0638 59.875C56.0105 59.875 54.5755 59.3733 53.7588 58.37C52.9421 57.3667 52.5338 56.1067 52.5338 54.59C52.5338 53.05 52.7905 50.95 53.3038 48.29C53.8171 45.63 54.0738 43.705 54.0738 42.515C54.0738 41.325 53.8288 40.3917 53.3388 39.715C55.5088 38.5717 57.3405 38 58.8338 38C59.7905 38 60.4788 38.1983 60.8988 38.595C61.3421 38.9683 61.5638 39.5867 61.5638 40.45C61.5638 41.3133 61.2021 43.4367 60.4788 46.82C59.7788 50.18 59.4288 52.2567 59.4288 53.05C59.4288 53.8433 59.6505 54.4733 60.0938 54.94C60.5371 55.3833 61.1205 55.605 61.8438 55.605C62.5671 55.605 63.3371 55.325 64.1538 54.765C64.9705 54.1817 65.6355 53.365 66.1488 52.315C66.4755 50.425 67.1171 47.4383 68.0738 43.355L65.9738 40.555C68.3305 38.8517 70.5705 38 72.6938 38C73.7438 38 74.4905 38.1983 74.9338 38.595C75.4005 38.9683 75.6338 39.5517 75.6338 40.345C75.6338 41.115 75.2021 43.3433 74.3388 47.03C73.4988 50.7167 73.0788 53.3417 73.0788 54.905C73.0788 56.445 73.4405 57.53 74.1638 58.16C72.8571 59.3033 71.4805 59.875 70.0338 59.875C68.6105 59.875 67.5838 59.56 66.9538 58.93C66.3238 58.3 66.0088 57.4717 66.0088 56.445L65.6588 56.27C64.8888 57.39 63.8155 58.2767 62.4388 58.93C61.0855 59.56 59.6271 59.875 58.0638 59.875ZM88.5723 59.875C85.3756 59.875 82.9023 59.0467 81.1523 57.39C79.4256 55.7333 78.5623 53.4933 78.5623 50.67C78.5623 46.9133 79.8456 43.8683 82.4123 41.535C85.0023 39.1783 88.2456 38 92.1423 38C94.3123 38 95.9573 38.49 97.0773 39.47C98.1973 40.4267 98.7573 41.6983 98.7573 43.285C98.7573 45.455 97.6956 47.2633 95.5723 48.71C93.4723 50.1333 90.2173 50.8567 85.8073 50.88C85.8773 52.3733 86.2156 53.5517 86.8223 54.415C87.429 55.255 88.1873 55.675 89.0973 55.675C90.0073 55.675 90.789 55.3717 91.4423 54.765C92.119 54.1583 92.4573 53.1667 92.4573 51.79C95.864 51.79 97.5673 52.595 97.5673 54.205C97.5673 55.5817 96.7273 56.8767 95.0473 58.09C93.3673 59.28 91.209 59.875 88.5723 59.875ZM91.5473 42.095C90.3573 42.095 89.2606 42.69 88.2573 43.88C87.2773 45.07 86.5656 46.47 86.1223 48.08C88.4556 47.8933 90.2056 47.3683 91.3723 46.505C92.5623 45.6183 93.1573 44.685 93.1573 43.705C93.1573 43.2383 93.0056 42.8533 92.7023 42.55C92.4223 42.2467 92.0373 42.095 91.5473 42.095ZM113.08 42.655C112.217 42.9117 111.529 43.285 111.015 43.775C110.502 44.2417 110.047 44.9183 109.65 45.805C113.594 46.3883 116.37 47.2283 117.98 48.325C119.59 49.4217 120.395 50.985 120.395 53.015C120.395 54.2983 120.034 55.4183 119.31 56.375C118.587 57.3083 117.677 58.02 116.58 58.51C114.434 59.42 112.322 59.875 110.245 59.875C104.342 59.875 101.39 58.6033 101.39 56.06C101.39 54.7767 101.962 53.4933 103.105 52.21C103.689 53.0267 104.564 53.7267 105.73 54.31C106.92 54.8933 108.075 55.185 109.195 55.185C111.132 55.185 112.299 54.3333 112.695 52.63C109.149 52.21 106.582 51.4167 104.995 50.25C103.409 49.0833 102.615 47.4383 102.615 45.315C102.615 43.635 103.164 42.2233 104.26 41.08C105.38 39.9367 106.757 39.1433 108.39 38.7C110.047 38.2333 111.902 38 113.955 38C116.032 38 117.735 38.3967 119.065 39.19C120.419 39.96 121.095 40.905 121.095 42.025C121.095 43.145 120.699 44.0083 119.905 44.615C119.135 45.2217 118.284 45.525 117.35 45.525C116.44 45.525 115.6 45.28 114.83 44.79C114.084 44.3 113.5 43.5883 113.08 42.655ZM135.57 42.655C134.707 42.9117 134.019 43.285 133.505 43.775C132.992 44.2417 132.537 44.9183 132.14 45.805C136.084 46.3883 138.86 47.2283 140.47 48.325C142.08 49.4217 142.885 50.985 142.885 53.015C142.885 54.2983 142.524 55.4183 141.8 56.375C141.077 57.3083 140.167 58.02 139.07 58.51C136.924 59.42 134.812 59.875 132.735 59.875C126.832 59.875 123.88 58.6033 123.88 56.06C123.88 54.7767 124.452 53.4933 125.595 52.21C126.179 53.0267 127.054 53.7267 128.22 54.31C129.41 54.8933 130.565 55.185 131.685 55.185C133.622 55.185 134.789 54.3333 135.185 52.63C131.639 52.21 129.072 51.4167 127.485 50.25C125.899 49.0833 125.105 47.4383 125.105 45.315C125.105 43.635 125.654 42.2233 126.75 41.08C127.87 39.9367 129.247 39.1433 130.88 38.7C132.537 38.2333 134.392 38 136.445 38C138.522 38 140.225 38.3967 141.555 39.19C142.909 39.96 143.585 40.905 143.585 42.025C143.585 43.145 143.189 44.0083 142.395 44.615C141.625 45.2217 140.774 45.525 139.84 45.525C138.93 45.525 138.09 45.28 137.32 44.79C136.574 44.3 135.99 43.5883 135.57 42.655ZM155.919 39.68C155.919 37.79 156.409 36.3667 157.389 35.41C158.369 34.4533 159.536 33.975 160.889 33.975C162.266 33.975 164.132 34.2083 166.489 34.675C168.846 35.1417 170.619 35.3867 171.809 35.41C173.792 35.0367 175.682 34.5817 177.479 34.045C177.666 34.6517 177.759 35.41 177.759 36.32C177.759 38.21 177.211 39.6333 176.114 40.59C175.041 41.5467 173.664 42.025 171.984 42.025C171.564 42.025 171.004 42.0017 170.304 41.955C169.021 48.6983 168.379 52.4667 168.379 53.26C168.379 55.5233 168.729 57.215 169.429 58.335C168.029 59.385 166.571 59.91 165.054 59.91C163.537 59.91 162.452 59.4783 161.799 58.615C161.146 57.7283 160.819 56.4217 160.819 54.695C160.819 52.945 161.496 48.3017 162.849 40.765C160.212 41.115 157.996 41.5117 156.199 41.955C156.012 41.3717 155.919 40.6133 155.919 39.68ZM197.524 38C200.348 38 201.759 39.4117 201.759 42.235C201.759 43.4483 201.409 45.5017 200.709 48.395C200.033 51.2883 199.694 53.47 199.694 54.94C199.694 56.41 199.939 57.4833 200.429 58.16C199.193 59.3033 197.886 59.875 196.509 59.875C193.826 59.875 192.484 58.4283 192.484 55.535C192.484 54.4617 192.834 52.6417 193.534 50.075C194.234 47.5083 194.584 45.84 194.584 45.07C194.584 44.02 194.188 43.495 193.394 43.495C192.741 43.495 191.994 43.7867 191.154 44.37C190.314 44.93 189.498 45.7 188.704 46.68C187.934 47.6367 187.281 48.8617 186.744 50.355C186.208 51.825 185.939 53.33 185.939 54.87C185.939 56.3867 186.184 57.4833 186.674 58.16C185.438 59.3033 184.131 59.875 182.754 59.875C180.071 59.875 178.729 58.4283 178.729 55.535C178.729 53.8083 179.196 50.3083 180.129 45.035C180.923 40.3917 181.378 37.79 181.494 37.23L179.534 34.43C182.451 32.7267 184.749 31.875 186.429 31.875C187.386 31.875 188.063 32.0733 188.459 32.47C188.856 32.8433 189.054 33.4733 189.054 34.36C189.054 36.04 188.891 37.8717 188.564 39.855C188.238 41.8383 187.934 43.2967 187.654 44.23L188.004 44.405C190.501 40.135 193.674 38 197.524 38ZM214.935 59.875C211.738 59.875 209.265 59.0467 207.515 57.39C205.788 55.7333 204.925 53.4933 204.925 50.67C204.925 46.9133 206.208 43.8683 208.775 41.535C211.365 39.1783 214.608 38 218.505 38C220.675 38 222.32 38.49 223.44 39.47C224.56 40.4267 225.12 41.6983 225.12 43.285C225.12 45.455 224.058 47.2633 221.935 48.71C219.835 50.1333 216.58 50.8567 212.17 50.88C212.24 52.3733 212.578 53.5517 213.185 54.415C213.791 55.255 214.55 55.675 215.46 55.675C216.37 55.675 217.151 55.3717 217.805 54.765C218.481 54.1583 218.82 53.1667 218.82 51.79C222.226 51.79 223.93 52.595 223.93 54.205C223.93 55.5817 223.09 56.8767 221.41 58.09C219.73 59.28 217.571 59.875 214.935 59.875ZM217.91 42.095C216.72 42.095 215.623 42.69 214.62 43.88C213.64 45.07 212.928 46.47 212.485 48.08C214.818 47.8933 216.568 47.3683 217.735 46.505C218.925 45.6183 219.52 44.685 219.52 43.705C219.52 43.2383 219.368 42.8533 219.065 42.55C218.785 42.2467 218.4 42.095 217.91 42.095ZM258.756 45.035L258.651 53.47H259.561C260.867 50.6933 262.069 47.73 263.166 44.58C264.262 41.4067 264.811 38.9917 264.811 37.335C264.811 36.6817 264.682 36.0517 264.426 35.445C266.199 34.2317 267.832 33.625 269.326 33.625C271.659 33.625 272.826 34.9433 272.826 37.58C272.826 38.8867 272.464 40.5433 271.741 42.55C271.041 44.5333 269.991 47.03 268.591 50.04C267.191 53.0267 266.444 54.6367 266.351 54.87L266.841 56.795C264.834 58.8483 262.326 59.875 259.316 59.875C256.306 59.875 254.404 59.3267 253.611 58.23C251.651 59.3267 249.551 59.875 247.311 59.875C245.071 59.875 243.461 59.5483 242.481 58.895C241.501 58.2417 241.011 57.145 241.011 55.605L241.046 49.165C241.046 43.8217 240.392 40.0533 239.086 37.86C238.479 36.8567 237.732 36.0517 236.846 35.445C238.432 34.2317 240.252 33.625 242.306 33.625C244.172 33.625 245.561 34.36 246.471 35.83C247.381 37.2767 247.976 39.015 248.256 41.045C248.489 42.8883 248.606 45.07 248.606 47.59L248.501 53.47H249.411C250.741 50.5767 251.861 47.1467 252.771 43.18C252.537 40.94 252.024 38.6883 251.231 36.425C252.094 35.7483 252.899 35.27 253.646 34.99C254.392 34.6867 255.384 34.535 256.621 34.535C259.164 34.535 260.436 35.7133 260.436 38.07C260.436 39.47 259.876 41.7917 258.756 45.035ZM291.291 40.66C292.598 40.66 293.718 41.185 294.651 42.235C295.608 43.285 296.086 44.8133 296.086 46.82C296.086 48.8033 295.736 50.6467 295.036 52.35C294.336 54.03 293.414 55.4067 292.271 56.48C291.128 57.5533 289.833 58.3933 288.386 59C286.939 59.5833 285.458 59.875 283.941 59.875C280.884 59.875 278.469 59.035 276.696 57.355C274.923 55.675 274.036 53.4467 274.036 50.67C274.036 46.9133 275.238 43.8683 277.641 41.535C280.068 39.1783 283.148 38 286.881 38C287.721 38 288.561 38.0933 289.401 38.28C289.658 39.05 289.798 39.925 289.821 40.905C290.311 40.7417 290.801 40.66 291.291 40.66ZM286.986 45.525C286.986 44.8717 287.138 44.1367 287.441 43.32C287.768 42.5033 288.281 41.85 288.981 41.36C285.901 42.0133 283.778 43.2617 282.611 45.105C281.608 46.6917 281.106 48.325 281.106 50.005C281.106 51.685 281.444 53.0383 282.121 54.065C282.821 55.0683 283.708 55.57 284.781 55.57C287.161 55.57 288.841 54.0183 289.821 50.915C287.931 49.7483 286.986 47.9517 286.986 45.525ZM299.405 55.535C299.405 54.6017 299.639 52.7933 300.105 50.11C300.595 47.4267 301.097 44.9767 301.61 42.76L299.79 39.96C302.707 38.6533 304.749 38 305.915 38C307.105 38 307.7 38.7467 307.7 40.24C307.7 41.0567 307.315 42.76 306.545 45.35L306.895 45.525C308.575 40.5083 310.664 38 313.16 38C314.304 38 315.179 38.35 315.785 39.05C316.392 39.75 316.695 40.5317 316.695 41.395C316.695 42.6783 316.217 43.775 315.26 44.685C314.304 45.595 312.869 46.05 310.955 46.05C308.062 46.05 306.615 49.025 306.615 54.975C306.615 56.4217 306.86 57.4833 307.35 58.16C305.904 59.3033 304.574 59.875 303.36 59.875C300.724 59.875 299.405 58.4283 299.405 55.535ZM331.126 56.445L330.776 56.27C328.956 58.6733 326.786 59.875 324.266 59.875C322.399 59.875 320.813 59.14 319.506 57.67C318.223 56.1767 317.581 54.17 317.581 51.65C317.581 48.5233 318.678 45.6767 320.871 43.11C321.944 41.85 323.379 40.835 325.176 40.065C326.973 39.2717 328.979 38.875 331.196 38.875C331.616 38.875 332.363 38.9217 333.436 39.015C333.483 38.525 333.588 37.93 333.751 37.23L331.791 34.43C334.708 32.7267 337.006 31.875 338.686 31.875C339.643 31.875 340.319 32.0733 340.716 32.47C341.113 32.8433 341.311 33.5667 341.311 34.64C341.311 35.69 340.786 38.6767 339.736 43.6C338.709 48.5233 338.196 52.0233 338.196 54.1C338.196 56.1533 338.558 57.5067 339.281 58.16C337.974 59.3033 336.609 59.875 335.186 59.875C333.786 59.875 332.759 59.525 332.106 58.825C331.453 58.1017 331.126 57.3083 331.126 56.445ZM324.161 50.32C324.161 51.65 324.499 52.7 325.176 53.47C325.876 54.24 326.739 54.625 327.766 54.625C329.096 54.625 330.309 53.995 331.406 52.735C331.779 48.5817 332.304 44.9883 332.981 41.955C330.298 41.955 328.151 42.8183 326.541 44.545C324.954 46.2717 324.161 48.1967 324.161 50.32Z" fill="white"/>
</svg>
